<svg width="2000" height="2000"   id="PeteBridge2020" xmlns="http://www.w3.org/2000/svg" xmlns:xlink="http://www.w3.org/1999/xlink"  x="0px" y="0px" viewBox="0 0 2000 2000" style="enable-background:new 0 0 2000 2000;" xml:space="preserve"><style>
    svg#PeteBridge2020 {
      display: block;
      width: 100%;
      height: auto;
    }
    
      svg#PeteBridge2020 * {
        fill: #f2e4d6;
      }
    
    svg#PeteBridge2020 #bg {
      fill: #004d80;
    }
    
      svg#PeteBridge2020 #secondary,
      svg#PeteBridge2020 #secondary * {
        fill: #f2ba42;
      }
    
  </style>,<rect
            id="bg"
            x="0"
            y="0"
            width="2000"
            height="2000" />,
    <g>
	<path d="M684.2,884.9c-28.8-0.7-48.5-0.7-72.8,0c0,27.2-0.1,57.5-0.1,84.7c24.2-1.5,48.5-2.9,72.7-4.2c5.8-0.3,7.8-2.1,7.8-8.4   c0-21,0.1-42.1,0.1-63.1C692,887.6,690,884.8,684.2,884.9z"></path>
	<path d="M1533,748.7H469.2c-1.1,0-2,0.9-2,2v498.6c0,1.4,1.4,2.3,2.6,1.8c111.4-42.9,308.1-71.4,532.2-71.4   c222.8,0,418.5,28.2,530.2,70.6c1.3,0.5,2.6-0.5,2.6-1.8V750.7C1535,749.6,1534.1,748.7,1533,748.7z M760.2,964.1   c-0.1,38.7-18.6,57.7-56.9,60.4c-30.7,2.1-61.4,4.6-92,7.4c0,32.2-0.1,64.4-0.1,96.6c0,1-0.7,1.8-1.7,1.9c-21.4,2.9-42.7,6-64,9.4   c-1.2,0.2-2.3-0.7-2.3-1.9V827.7c0-1.1,0.9-2,2-2h158.5c38.3,0.1,56.7,18.2,56.7,56.8C760.3,909.7,760.2,936.9,760.2,964.1z    M994.3,828.2l-15,55.3c-0.2,0.9-1,1.4-1.9,1.4c-36.8,0.1-75.4-0.4-112.1,0c0,17,0.4,32.3,0.4,49.3c35.9,0.1,64.5-0.5,97.5-0.7   c1.3,0,2.2,1.2,1.9,2.4c-2.3,8.5-9.9,36.8-15,52.9c-0.2,0.8-1,1.3-1.8,1.3c-27.7,0.3-55.6,0.9-83.2,1.6c0,19.2-0.1,38.3-0.1,57.5   c42.3-1.6,84.7-2.5,127-2.6c1.3,0,2.2,1.2,1.9,2.5l-14.5,53.4c-0.2,0.8-1,1.4-1.9,1.4c-59.1,0.6-120,2.9-179,7.1   c-1.1,0.1-2.1-0.8-2.1-2c0.2-93.8,0.3-187.5,0.5-281.3c0-1.1,0.9-2,2-2h193.4C993.7,825.8,994.6,827,994.3,828.2z M1234.9,883   c0,1.1-0.9,2-2,2c-36,0.2-52.8-0.2-72.8,0c0.1,73.9,0.2,147,0.3,220.9c0,1.1-0.9,2-2.1,2c-21.5-1.1-43-2-64.5-2.7   c-1.1,0-1.9-0.9-1.9-2c-0.1-73.2-0.1-145-0.2-218.2c-24.3-0.2-48.7,0-73,0c-1.1,0-1.9-0.9-1.9-1.9c0-18,0-37.3,0-55.3   c0-1.1,0.9-1.9,1.9-1.9H1233c1.1,0,2,0.9,2,2L1234.9,883L1234.9,883z M1464.2,828.2l-15,55.3c-0.2,0.9-1,1.4-1.9,1.4   c-54.9,0.1-66.9,0.1-115,0c0,17.9,0.1,39.6,0.1,57.5c30.4,1.9,58.5,3.4,96,5.6c1.2,0.1,2.1,1.3,1.8,2.4l-13.9,54.4   c-0.2,0.9-1.2,1.6-2.1,1.5c-33.4-3.9-45.1-4.5-81.6-7.7c0,20.2,0.1,42.7,0.1,62.9c44.7,4.7,85.5,9.5,124.2,15.9   c1.1,0.2,1.9,1.3,1.6,2.5l-14.8,54.6c-0.3,1-1.2,1.6-2.2,1.4c-57.7-8.6-117.3-15.5-175.2-20.6c-1-0.1-1.8-0.9-1.8-1.9   c-0.2-95.2-0.4-190.5-0.5-285.7c0-1.1,0.9-2,2-2h196.4C1463.6,825.8,1464.6,827,1464.2,828.2z"></path>
</g>
<g id="secondary">
	<g>
		<path d="M172.6,950l-33.2,11.9c-17.8,6.4-28.1,12.5-28.1,29.1v46.1h99.2v-28.3h-67v-12.3c0-3.7,1.8-4.7,5.5-6.1l33-11.9    c17.8-6.3,28.1-12.7,28.1-29.1v-22.1c0-18-9-27-27-27h-43.4c-18,0-27,9-27,27v16h31.6v-11.5c0-2.9,0.8-3.7,3.7-3.7h26    c2.9,0,3.7,0.8,3.7,3.7v12.3C177.9,947.9,176.1,948.7,172.6,950z"></path>
		<path d="M334.8,1037.1c18.2,0,27-8.8,27-27v-82.8c0-18.4-8.8-27-27-27h-50c-18.2,0-27,8.6-27,27v82.8c0,18.2,8.8,27,27,27H334.8z     M290.3,932.3c0-2.9,1-3.7,3.7-3.7h31.6c2.7,0,3.7,0.8,3.7,3.7v73c0,2.7-1,3.7-3.7,3.7H294c-2.7,0-3.7-1-3.7-3.7V932.3z"></path>
		<rect x="110.8" y="825.6" width="251.2" height="28.5"></rect>
		<rect x="110.8" y="1081.8" width="251.2" height="28.5"></rect>
		<path d="M1700,950l-33.2,11.9c-17.8,6.4-28.1,12.5-28.1,29.1v46.1h99.2v-28.3h-67v-12.3c0-3.7,1.8-4.7,5.5-6.1l33-11.9    c17.8-6.3,28.1-12.7,28.1-29.1v-22.1c0-18-9-27-27-27h-43.4c-18,0-27,9-27,27v16h31.6v-11.5c0-2.9,0.8-3.7,3.7-3.7h26    c2.9,0,3.7,0.8,3.7,3.7v12.3C1705.2,947.9,1703.5,948.7,1700,950z"></path>
		<path d="M1862.2,1037.1c18.2,0,27-8.8,27-27v-82.8c0-18.4-8.8-27-27-27h-50c-18.2,0-27,8.6-27,27v82.8c0,18.2,8.8,27,27,27H1862.2    z M1817.7,932.3c0-2.9,1-3.7,3.7-3.7h31.6c2.7,0,3.7,0.8,3.7,3.7v73c0,2.7-1,3.7-3.7,3.7h-31.6c-2.7,0-3.7-1-3.7-3.7V932.3z"></path>
		<rect x="1638.1" y="825.6" width="251.2" height="28.5"></rect>
		<rect x="1638.1" y="1081.8" width="251.2" height="28.5"></rect>
	</g>
</g>
</svg>