<?xml version="1.0" encoding="utf-8"?>
<!-- Generator: Adobe Illustrator 21.1.0, SVG Export Plug-In . SVG Version: 6.00 Build 0)  -->
<svg version="1.1" id="PeteBridge" xmlns="http://www.w3.org/2000/svg" xmlns:xlink="http://www.w3.org/1999/xlink" x="0px" y="0px"
	 viewBox="0 0 2000 941.3" style="enable-background:new 0 0 2000 941.3;" xml:space="preserve">
<style type="text/css">
	.st0{fill:#1D253C;}
</style>
<g>
	<path class="st0" d="M406.5,255.1c-54.1-1.2-90.9-1.2-136.3,0c0,51.1-0.2,107.8-0.2,158.7c45.4-2.9,90.9-5.5,136.3-7.9
		c10.8-0.6,14.6-3.9,14.7-15.7c0-39.3,0.2-78.9,0.2-118.2C421,260.2,417.3,254.9,406.5,255.1z"/>
	<path class="st0" d="M0,3.7v933.9c0,2.6,2.6,4.3,4.9,3.3c208.7-80.2,577-133.7,996.9-133.7c417.3,0,784.1,52.7,993.3,132.4
		c2.4,1,4.9-0.8,4.9-3.3V3.7c0-2-1.6-3.7-3.7-3.7H3.7C1.8,0,0,1.6,0,3.7z M548.9,403.3c-0.2,72.4-35,108-106.6,113.1
		c-57.4,3.9-115,8.7-172.5,13.8c0,60.4-0.2,120.6-0.2,180.9c0,1.8-1.4,3.3-3.1,3.5c-39.9,5.5-80,11.2-120,17.5
		c-2.2,0.4-4.3-1.4-4.3-3.5V147.9c0-2,1.6-3.7,3.7-3.7h297c71.6,0.2,106.2,34,106.2,106.4C549.1,301.5,548.9,352.4,548.9,403.3z
		 M987.2,148.9l-28.1,103.4c-0.4,1.6-2,2.8-3.5,2.8c-68.8,0.2-141.2-0.6-210,0c0,31.9,0.8,60.4,0.8,92.2c67.3,0.2,120.9-1,182.7-1.4
		c2.4,0,4.1,2.2,3.5,4.5c-4.3,15.9-18.7,68.8-28.1,99.1c-0.4,1.4-1.8,2.4-3.3,2.4c-51.7,0.6-104,1.6-155.8,3.1
		c0,35.8-0.2,71.8-0.2,107.6c79.3-2.9,158.5-4.5,238-4.9c2.4,0,4.1,2.4,3.5,4.7l-27.1,99.9c-0.4,1.6-1.8,2.8-3.5,2.8
		c-110.7,1.2-224.8,5.5-335.3,13.2c-2.2,0.2-3.9-1.6-3.9-3.7c0.4-175.6,0.6-351.2,1-526.8c0-2,1.6-3.7,3.7-3.7h362.2
		C986.2,144.3,988,146.5,987.2,148.9z M1438.2,251.5c0,2-1.6,3.7-3.7,3.7c-67.5,0.4-98.9-0.4-136.3,0c0.2,138.4,0.4,275.3,0.6,413.8
		c0,2.2-1.8,3.7-3.9,3.7c-40.3-2.2-80.6-3.7-120.7-4.9c-2,0-3.5-1.8-3.5-3.7c-0.2-137.1-0.2-271.6-0.4-408.7
		c-45.6-0.2-91.2,0-136.7,0c-2,0-3.5-1.6-3.5-3.5c0-33.8,0-70,0-103.6c0-2,1.6-3.5,3.5-3.5h401.2c2,0,3.7,1.6,3.7,3.7v103H1438.2z
		 M1867.6,148.9l-28.1,103.6c-0.4,1.6-2,2.8-3.5,2.8c-102.9,0.2-125.3,0.2-215.3,0c0,33.6,0.2,74.1,0.2,107.8
		c57,3.5,109.7,6.3,179.7,10.6c2.4,0.2,3.9,2.4,3.3,4.5L1777.8,480c-0.4,1.8-2.2,2.9-3.9,2.8c-62.5-7.3-84.4-8.5-152.8-14.4
		c0,37.8,0.2,80,0.2,117.8c83.8,8.8,160.3,17.9,232.6,29.7c2.2,0.4,3.5,2.6,2.9,4.5l-27.7,102.3c-0.4,1.8-2.2,2.9-4.1,2.8
		c-108-16.1-219.7-28.9-328.2-38.5c-2-0.2-3.3-1.8-3.3-3.5c-0.4-178.4-0.6-356.7-1-535.3c0-2,1.6-3.7,3.7-3.7h367.9
		C1866.5,144.3,1868.2,146.5,1867.6,148.9z"/>
</g>
</svg>
